<?xml version="1.0" encoding="UTF-8"?>
<svg width="16px" height="16px" viewBox="0 0 16 16" version="1.1" xmlns="http://www.w3.org/2000/svg" xmlns:xlink="http://www.w3.org/1999/xlink">
    <title>fangdajingsousuo</title>
    <g id="打卡规则设置（element）后端2.0" stroke="none" stroke-width="1" fill="none" fill-rule="evenodd">
        <g id="11打卡规则（未设置人员时）-添加人员【已完成】" transform="translate(-460.000000, -190.000000)" fill="#999999" fill-rule="nonzero">
            <g id="弹框" transform="translate(430.000000, 111.000000)">
                <g id="search" transform="translate(20.000000, 69.000000)">
                    <g id="fangdajingsousuo" transform="translate(10.000000, 10.000000)">
                        <path d="M7.36,14.3294737 C3.41221053,14.4372632 0.124631579,11.3113684 0.0168421053,7.36357895 C-0.0909473684,3.41578947 3.03494737,0.128210526 6.98273684,0.0204210526 C10.9305263,-0.0873684211 14.2181053,3.03852632 14.3258947,6.98631579 C14.4336842,10.9341053 11.3077895,14.2216842 7.36,14.3294737 L7.36,14.3294737 Z M7.02315789,1.26 C3.76252632,1.34084211 1.18905263,4.06252632 1.26989474,7.32315789 C1.35073684,10.5837895 4.07242105,13.1572632 7.33305263,13.0764211 C10.5936842,12.9955789 13.1671579,10.2738947 13.0863158,7.01326316 C13.0054737,3.75263158 10.2837895,1.17915789 7.02315789,1.26 Z" id="形状"></path>
                        <path d="M15.3498947,15.9463158 C15.1882105,15.9463158 15.0265263,15.8924211 14.9052632,15.7711579 L11.4829474,12.524 C11.2269474,12.2814737 11.2269474,11.8907368 11.456,11.6482105 C11.6985263,11.3922105 12.0892632,11.3922105 12.3317895,11.6212632 L15.7541053,14.8684211 C16.0101053,15.1109474 16.0101053,15.5016842 15.7810526,15.7442105 C15.6732632,15.8789474 15.5115789,15.9463158 15.3498947,15.9463158 L15.3498947,15.9463158 Z" id="路径"></path>
                    </g>
                </g>
            </g>
        </g>
    </g>
</svg>