<?xml version="1.0" encoding="UTF-8"?>
<svg width="16px" height="15px" viewBox="0 0 16 15" version="1.1" xmlns="http://www.w3.org/2000/svg" xmlns:xlink="http://www.w3.org/1999/xlink">
    <title>navunfold@2x</title>
    <g id="页面-1" stroke="none" stroke-width="1" fill="none" fill-rule="evenodd">
        <g id="1表单管理" transform="translate(-227.000000, -19.000000)" fill="#000000" fill-rule="nonzero">
            <g id="编组-4" transform="translate(210.000000, -2.000000)">
                <g id="navunfold" transform="translate(17.000000, 21.000000)">
                    <path d="M6.14008884,5.45233973 L15.5594617,5.45233973 C15.6458059,5.45233973 15.7164512,5.38169443 15.7164512,5.29535017 L15.7164512,4.3534129 C15.7164512,4.26706865 15.6458059,4.19642335 15.5594617,4.19642335 L6.14008884,4.19642335 C6.0537446,4.19642335 5.9830993,4.26706865 5.9830993,4.3534129 L5.9830993,5.29535017 C5.9830993,5.38169441 6.0537446,5.45233973 6.14008884,5.45233973 Z M5.9830993,9.49482056 C5.9830993,9.5811648 6.0537446,9.6518101 6.14008884,9.6518101 L15.5594617,9.6518101 C15.6458059,9.6518101 15.7164512,9.5811648 15.7164512,9.49482056 L15.7164512,8.55288327 C15.7164512,8.46653903 15.6458059,8.39589373 15.5594617,8.39589373 L6.14008884,8.39589373 C6.0537446,8.39589373 5.9830993,8.46653903 5.9830993,8.55288327 L5.9830993,9.49482056 Z M15.5594617,0.0165766464 L0.174486066,0.0165766464 C0.0881418214,0.0165766464 0.0174965214,0.0872219464 0.0174965214,0.173566211 L0.0174965214,1.11550348 C0.0174965214,1.20184772 0.0881418214,1.27249302 0.174486066,1.27249302 L15.5594617,1.27249302 C15.6458059,1.27249302 15.7164512,1.20184772 15.7164512,1.11550348 L15.7164512,0.173566211 C15.7164512,0.0872219661 15.6458059,0.0165766464 15.5594617,0.0165766464 Z M15.5594617,12.5757404 L0.174486066,12.5757404 C0.0881418214,12.5757404 0.0174965214,12.6463857 0.0174965214,12.73273 L0.0174965214,13.6746672 C0.0174965214,13.7610115 0.0881418214,13.8316568 0.174486066,13.8316568 L15.5594617,13.8316568 C15.6458059,13.8316568 15.7164512,13.7610115 15.7164512,13.6746672 L15.7164512,12.73273 C15.7164512,12.6463857 15.6458059,12.5757404 15.5594617,12.5757404 Z M3.36726097,7.05832317 L0.300077702,9.47399982 C0.186260289,9.5642688 0.0174965214,9.48381166 0.0174965214,9.33859634 L0.0174965214,4.50724303 C0.0174965214,4.36202771 0.184297909,4.28157056 0.300077702,4.37183955 L3.36726097,6.78751619 C3.4555676,6.85619911 3.4555676,6.98964023 3.36726097,7.05832317 Z" id="形状"></path>
                </g>
            </g>
        </g>
    </g>
</svg>