<?xml version="1.0" encoding="UTF-8"?>
<svg width="22px" height="19px" viewBox="0 0 22 19" version="1.1" xmlns="http://www.w3.org/2000/svg" xmlns:xlink="http://www.w3.org/1999/xlink">
    <title>renyuanIcon</title>
    <g id="打卡规则设置（element）后端2.0" stroke="none" stroke-width="1" fill="none" fill-rule="evenodd">
        <g id="12打卡规则-编辑人员/查看人员【已完成】" transform="translate(-790.000000, -238.000000)" fill="#1890FF" fill-rule="nonzero">
            <g id="弹框" transform="translate(430.000000, 111.000000)">
                <g id="right" transform="translate(339.000000, 69.500000)">
                    <g id="renyuanIcon" transform="translate(21.000000, 58.000000)">
                        <path d="M18.6788509,13.3109112 C17.3820384,12.7669441 15.4308196,11.3608717 12.5800071,10.8774474 C13.3091321,10.1377599 13.8476321,8.98282895 14.4135071,7.61402961 C14.7425071,6.82102303 14.6767884,6.14501645 14.6767884,5.18092105 C14.6767884,4.47033553 14.8176321,3.32976316 14.6298509,2.70266447 C14.0025696,0.583608553 12.4110384,-1.77635684e-15 10.5515071,-1.77635684e-15 C8.68953838,-1.77635684e-15 7.09922588,0.587013158 6.47160088,2.70746053 C6.28885088,3.33627632 6.42925713,4.47273355 6.42925713,5.18092105 C6.42925713,6.14673355 6.37413213,6.82578947 6.70385088,7.61918092 C7.27406963,8.99514474 7.81894463,10.148773 8.54338213,10.8860329 C5.71750713,11.3752599 3.88938213,12.7727763 2.60088213,13.3150559 C-0.0653678675,14.4433125 0.000143729123,15.6783849 0.000143729123,15.6783849 L0.000143729123,17.7714178 L21.4266634,17.7676283 L21.4266634,15.6783849 C21.4266634,15.6783553 21.3559759,14.4385164 18.6788509,13.3109112 Z" id="形状"></path>
                    </g>
                </g>
            </g>
        </g>
    </g>
</svg>