<?xml version="1.0" encoding="UTF-8"?>
<svg width="16px" height="17px" viewBox="0 0 16 17" version="1.1" xmlns="http://www.w3.org/2000/svg" xmlns:xlink="http://www.w3.org/1999/xlink">
    <title>shanchu</title>
    <g id="打卡规则设置（element）后端2.0" stroke="none" stroke-width="1" fill="none" fill-rule="evenodd">
        <g id="12打卡规则-编辑人员/查看人员【已完成】" transform="translate(-870.000000, -239.000000)" fill="#CCCCCC" fill-rule="nonzero">
            <g id="弹框" transform="translate(430.000000, 111.000000)">
                <g id="right" transform="translate(339.000000, 69.500000)">
                    <g id="shanchu" transform="translate(101.000000, 59.000000)">
                        <path d="M13.1603448,13.2293103 C10.1241379,16.2241379 5.23448276,16.1896552 2.23965517,13.1534483 C-0.755172414,10.1172414 -0.720689655,5.22931034 2.31551724,2.2362069 C5.35172414,-0.75862069 10.2413793,-0.724137931 13.2362069,2.31206897 C16.2310345,5.34827586 16.1965517,10.2362069 13.1603448,13.2293103 Z M11.2137931,3.73448276 L7.74137931,7.15862069 L4.31724138,3.6862069 L3.73793103,4.25689655 L7.16206897,7.72931034 L3.69137931,11.1534483 L4.26206897,11.7310345 L7.73448276,8.30689655 L11.1586207,11.7793103 L11.737931,11.2086207 L8.31206897,7.7362069 L11.7844828,4.31206897 L11.2137931,3.73448276 L11.2137931,3.73448276 Z" id="形状"></path>
                    </g>
                </g>
            </g>
        </g>
    </g>
</svg>