<?xml version="1.0" encoding="UTF-8"?>
<svg width="20px" height="19px" viewBox="0 0 20 19" version="1.1" xmlns="http://www.w3.org/2000/svg" xmlns:xlink="http://www.w3.org/1999/xlink">
    <title>wenjianjia</title>
    <g id="打卡规则设置（element）后端2.0" stroke="none" stroke-width="1" fill="none" fill-rule="evenodd">
        <g id="12打卡规则-编辑人员/查看人员【已完成】" transform="translate(-791.000000, -326.000000)" fill="#1890FF" fill-rule="nonzero">
            <g id="弹框" transform="translate(430.000000, 111.000000)">
                <g id="right" transform="translate(339.000000, 69.500000)">
                    <g id="wenjianjia" transform="translate(22.000000, 146.000000)">
                        <path d="M19.9659288,15.8850198 C19.9659288,15.8850198 19.9659288,4.85326 19.9659288,3.76878912 C19.9659288,2.2969993 18.5838716,2.43492425 18.5838716,2.43492425 C18.5838716,2.43492425 10.3285772,2.44437754 10.7652183,2.43492425 C10.2915281,2.44437754 10.0576295,2.19498354 10.0576295,2.19498354 C10.0576295,2.19498354 9.72820714,1.64706949 9.13756759,0.779891279 C8.51769071,-0.128863666 7.8003485,0.020374226 7.8003485,0.020374226 L1.71656473,0.0203742043 C0.0304165179,0.0203742043 0.0109325893,1.59229798 0.0109325893,1.59229798 C0.0109325893,1.59229798 0.0109325893,14.6720773 0.0109325893,15.8037924 C0.0109325893,17.5570775 1.377389,17.339807 1.377389,17.339807 C1.377389,17.339807 17.6794105,17.339807 18.7086327,17.339807 C20.1706129,17.3397849 19.9659288,15.8850198 19.9659288,15.8850198 L19.9659288,15.8850198 Z" id="路径"></path>
                    </g>
                </g>
            </g>
        </g>
    </g>
</svg>